Coordinates
version=1
nRows=32
nColumns=22
inDegrees=yes

Units are S.I. units (second, meters, Newtons, ...)
If the header above contains a line with 'inDegrees', this indicates whether rotational values are in degrees (yes) or radians (no).

endheader
time	pelvis_tilt	pelvis_list	pelvis_rotation	pelvis_tx	pelvis_ty	pelvis_tz	hip_flexion_r	hip_adduction_r	hip_rotation_r	knee_angle_r	ankle_angle_r	subtalar_angle_r	hip_flexion_l	hip_adduction_l	hip_rotation_l	knee_angle_l	ankle_angle_l	subtalar_angle_l	lumbar_extension	lumbar_bending	lumbar_rotation
      2.59000000	     -5.28349805	    -10.19166737	     15.48440834	      0.05637062	      0.96832505	      0.28861026	     11.92672775	      8.82301900	      2.00912066	    -23.57592560	     22.91662686	     -2.02132113	     39.03508731	     -9.59499858	     -9.95571862	    -43.04854381	     16.94180425	     -2.84368775	     -2.76180722	      9.43876505	      8.82473248
      2.60000000	     -5.18612038	    -10.27667808	     16.00845634	      0.06220556	      0.96801548	      0.28634088	     11.31655462	      8.85376542	      1.62094764	    -23.29003921	     23.07413138	     -1.99406657	     39.36986599	     -9.50442151	    -10.32849573	    -41.32430016	     16.52033095	     -2.57167396	     -2.89144652	      9.51797936	      8.92389246
      2.61000000	     -5.07650722	    -10.37657212	     16.52352463	      0.06811294	      0.96765853	      0.28399652	     10.68417181	      8.91357460	      1.26404659	    -22.98839608	     23.21372633	     -1.96179789	     39.67625173	     -9.43185632	    -10.71456237	    -39.63390752	     16.16474245	     -2.27026833	     -3.02016981	      9.61792001	      9.01316365
      2.62000000	     -4.94708008	    -10.48782190	     17.02546416	      0.07414334	      0.96726229	      0.28161039	     10.01834602	      9.00610779	      0.95030321	    -22.67064737	     23.34076247	     -1.92532229	     39.94460524	     -9.39428583	    -11.14868501	    -37.99192009	     15.93741346	     -1.93350415	     -3.15363772	      9.72554265	      9.08495025
      2.63000000	     -4.82110265	    -10.61147127	     17.52047229	      0.08024167	      0.96677623	      0.27915885	      9.37366141	      9.11545781	      0.61719618	    -22.38456157	     23.44498905	     -1.90205917	     40.20717944	     -9.37047398	    -11.59514864	    -36.41072978	     15.78260964	     -1.65699861	     -3.26760386	      9.83639136	      9.17989019
      2.64000000	     -4.69227507	    -10.74075513	     17.99534160	      0.08647724	      0.96623265	      0.27664412	      8.72099286	      9.24597773	      0.33657107	    -22.10179844	     23.52797729	     -1.87691728	     40.44474606	     -9.37382637	    -12.09319791	    -34.89832358	     15.73643754	     -1.43011724	     -3.36507938	      9.94661849	      9.27310113
      2.65000000	     -4.55406998	    -10.86805075	     18.44429007	      0.09284825	      0.96564139	      0.27405806	      8.06104450	      9.38831350	      0.09225955	    -21.83954705	     23.60823907	     -1.84000521	     40.64804781	     -9.40419237	    -12.64990668	    -33.47074565	     15.78865547	     -1.25317176	     -3.45873234	     10.05067477	      9.37408488
      2.66000000	     -4.41569938	    -10.99058547	     18.86490488	      0.09935682	      0.96499950	      0.27138807	      7.40760176	      9.53325223	     -0.11950494	    -21.60906843	     23.68731177	     -1.77836702	     40.82254439	     -9.45327526	    -13.25217608	    -32.13749176	     15.89705128	     -1.13306580	     -3.53828747	     10.14427809	      9.49137710
      2.67000000	     -4.28778410	    -11.10830961	     19.25600327	      0.10600196	      0.96429484	      0.26862588	      6.77347635	      9.67515557	     -0.29902840	    -21.41463565	     23.76362800	     -1.68334885	     40.97830346	     -9.51427896	    -13.88462018	    -30.91165110	     16.04655954	     -1.06350266	     -3.58990612	     10.22265391	      9.61502645
      2.68000000	     -4.15739496	    -11.21476139	     19.62025462	      0.11276649	      0.96355866	      0.26575571	      6.14515439	      9.80738192	     -0.45397811	    -21.25882789	     23.84564782	     -1.54064192	     41.09723906	     -9.58090106	    -14.52321002	    -29.80073918	     16.21127029	     -1.02362836	     -3.63821715	     10.28809450	      9.75582020
      2.69000000	     -4.04034705	    -11.31966964	     19.96190172	      0.11965184	      0.96276274	      0.26277155	      5.53984621	      9.93222961	     -0.59651815	    -21.13754043	     23.92897316	     -1.35143511	     41.20113242	     -9.64767272	    -15.13159131	    -28.81853102	     16.38022535	     -1.00539663	     -3.65632078	     10.34129482	      9.90829089
      2.70000000	     -3.93145803	    -11.41959804	     20.28057451	      0.12664566	      0.96192292	      0.25966291	      4.95238126	     10.04578748	     -0.72181910	    -21.05441311	     24.00520309	     -1.10944333	     41.27692126	     -9.71029293	    -15.69343348	    -27.96345024	     16.56348961	     -0.99885349	     -3.65519187	     10.38551184	     10.06045046
      2.71000000	     -3.83612521	    -11.51929294	     20.58031410	      0.13376117	      0.96103026	      0.25642787	      4.38724617	     10.14958017	     -0.83772633	    -21.00665383	     24.06872488	     -0.82253700	     41.33196387	     -9.76684648	    -16.18691668	    -27.24553564	     16.75548887	     -0.99764741	     -3.62370602	     10.42260100	     10.20646674
      2.72000000	     -3.74681342	    -11.61491377	     20.86484816	      0.14099019	      0.96010828	      0.25306713	      3.82917755	     10.24088445	     -0.94914929	    -20.98001782	     24.12234233	     -0.47137680	     41.35462087	     -9.81345970	    -16.60404716	    -26.66373077	     16.93379414	     -0.99594126	     -3.57772513	     10.44856729	     10.34788397
      2.73000000	     -3.66733041	    -11.70773570	     21.13274096	      0.14835517	      0.95915203	      0.24955043	      3.28333111	     10.31740094	     -1.05646047	    -20.98283470	     24.15476286	     -0.08048272	     41.34534718	     -9.84527043	    -16.92716956	    -26.22214296	     17.09937118	     -0.99214579	     -3.50287277	     10.47097628	     10.48911857
      2.74000000	     -3.59768344	    -11.79285550	     21.39339758	      0.15584825	      0.95817227	      0.24587606	      2.74545047	     10.37338664	     -1.16651779	    -21.00772605	     24.16111889	      0.35079119	     41.30213047	     -9.85185306	    -17.15226323	    -25.91718841	     17.22098400	     -0.98810693	     -3.40300144	     10.48048886	     10.61592240
      2.75000000	     -3.54013610	    -11.86342154	     21.65398631	      0.16346600	      0.95717982	      0.24203154	      2.21614958	     10.40123743	     -1.28320125	    -21.05673776	     24.15285982	      0.84478448	     41.22465769	     -9.82008226	    -17.27141016	    -25.74578948	     17.24495267	     -0.99207179	     -3.27750210	     10.46958184	     10.72014562
      2.76000000	     -3.50402814	    -11.92177949	     21.91778239	      0.17119310	      0.95616318	      0.23799654	      1.71347096	     10.39886138	     -1.40680492	    -21.14481010	     24.13103722	      1.37731861	     41.12688527	     -9.74214932	    -17.27586074	    -25.70512639	     17.15694922	     -1.02096711	     -3.11342071	     10.44296977	     10.80118720
      2.77000000	     -3.49110167	    -11.95896271	     22.20948288	      0.17898942	      0.95513032	      0.23375036	      1.24266449	     10.35884374	     -1.54989770	    -21.27917845	     24.05344491	      1.92030732	     41.02527481	     -9.58791297	    -17.11733296	    -25.80402607	     16.89817785	     -1.08409088	     -2.91446224	     10.38527204	     10.83977324
      2.78000000	     -3.49955292	    -11.97753429	     22.49519722	      0.18687992	      0.95412324	      0.22932655	      0.80845253	     10.28248449	     -1.68467335	    -21.47544904	     23.98011914	      2.67294459	     40.90906205	     -9.39063123	    -16.87267861	    -26.01579402	     16.44740011	     -1.23698081	     -2.68297389	     10.30403571	     10.89621236
      2.79000000	     -3.53415798	    -11.97269954	     22.85349563	      0.19476886	      0.95310998	      0.22464198	      0.43886312	     10.16531846	     -1.88414434	    -21.76369602	     23.84674125	      3.38351003	     40.81852951	     -9.07996633	    -16.41715230	    -26.34250206	     15.80432048	     -1.44079677	     -2.41268495	     10.19190450	     10.85158931
      2.80000000	     -3.60501619	    -11.93502340	     23.24204995	      0.20269628	      0.95214283	      0.21970811	      0.13331556	      9.99193715	     -2.08861644	    -22.13861914	     23.66723230	      4.27656550	     40.75838672	     -8.68457885	    -15.85446271	    -26.77887367	     14.98373918	     -1.76067450	     -2.09640279	     10.04005716	     10.76847972
      2.81000000	     -3.69570711	    -11.85663102	     23.68791521	      0.21057907	      0.95124670	      0.21453171	     -0.08017657	      9.75993029	     -2.34631909	    -22.67621671	     23.43201676	      5.22820531	     40.72513590	     -8.18043428	    -15.11897795	    -27.30519438	     14.07128618	     -2.14642368	     -1.76683456	      9.84307806	     10.62948002
      2.82000000	     -3.80428901	    -11.73330122	     24.18250094	      0.21841889	      0.95045981	      0.20912043	     -0.19907256	      9.46473193	     -2.64137156	    -23.38703664	     23.13547673	      6.29415160	     40.71965783	     -7.57885741	    -14.25207942	    -27.91787548	     13.14506195	     -2.60681910	     -1.43020311	      9.59801393	     10.44919483
      2.83000000	     -3.92409629	    -11.55568507	     24.71540127	      0.22619896	      0.94982440	      0.20348397	     -0.22088533	      9.09806940	     -2.95851187	    -24.29272003	     22.75580484	      7.47944187	     40.72111190	     -6.88145828	    -13.27944062	    -28.59396934	     12.29511087	     -3.13021004	     -1.10455483	      9.30046230	     10.24781729
      2.84000000	     -4.04360510	    -11.32745409	     25.28038371	      0.23390761	      0.94935909	      0.19766016	     -0.14438177	      8.66800390	     -3.28895617	    -25.41064225	     22.27724167	      8.75787100	     40.71108422	     -6.10759362	    -12.24695024	    -29.31746027	     11.57680766	     -3.71730051	     -0.80625746	      8.95685662	     10.03984202
      2.85000000	     -4.15561061	    -11.05662987	     25.85788189	      0.24154382	      0.94907515	      0.19170065	      0.03017816	      8.18347973	     -3.61714930	    -26.74130970	     21.67515071	     10.09578285	     40.66545161	     -5.28601931	    -11.21287858	    -30.05899890	     11.02072155	     -4.37565538	     -0.54661295	      8.57840477	      9.85555837
      2.86000000	     -4.25741565	    -10.75699917	     26.43291091	      0.24909287	      0.94895292	      0.18565460	      0.30647964	      7.65932261	     -3.91032968	    -28.27956007	     20.93055278	     11.46292244	     40.56981469	     -4.44751285	    -10.23636184	    -30.78842478	     10.62499710	     -5.11481248	     -0.32779237	      8.18094414	      9.71508731
      2.87000000	     -4.35115533	    -10.44754156	     26.98991138	      0.25654294	      0.94896203	      0.17958870	      0.69490130	      7.11338430	     -4.14489323	    -30.01424632	     20.02091513	     12.81227581	     40.41870652	     -3.62712425	     -9.36939620	    -31.47445370	     10.37660591	     -5.92762759	     -0.14151767	      7.78104096	      9.63201902
      2.88000000	     -4.44442414	    -10.14604305	     27.51865282	      0.26386835	      0.94905388	      0.17355670	      1.20795121	      6.56040481	     -4.30079802	    -31.92953309	     18.94401209	     14.08914577	     40.21707826	     -2.84927767	     -8.63962645	    -32.09269395	     10.25874461	     -6.78871794	      0.02419852	      7.39114648	      9.61275805
      2.89000000	     -4.54526418	     -9.86608246	     28.01233117	      0.27104292	      0.94918588	      0.16760729	      1.85709841	      6.01201292	     -4.36050802	    -34.00968438	     17.71105757	     15.26116469	     39.97540986	     -2.12987284	     -8.05872663	    -32.62863115	     10.26010871	     -7.66960468	      0.18258623	      7.02011133	      9.65095243
      2.90000000	     -4.65936907	     -9.61429044	     28.47235527	      0.27804428	      0.94932374	      0.16177251	      2.64592379	      5.47567853	     -4.31717594	    -36.23666744	     16.35735733	     16.31096263	     39.70427696	     -1.47068192	     -7.61379702	    -33.07768873	     10.36697697	     -8.53513140	      0.34163251	      6.66978675	      9.73402302
